<svg id="Layer_1" data-name="Layer 1" xmlns="http://www.w3.org/2000/svg" viewBox="0 0 572.48 664"><defs><style>.cls-1{fill:#009ffd;}</style></defs><path class="cls-1" d="M1246,374c1.16,50.34-2.65,178.09-85,308-68.79,108.53-158.35,164.84-203,189A485.09,485.09,0,0,1,750,666,469.45,469.45,0,0,0,922,556c76.18-76.77,106.16-160.51,118-202a393,393,0,0,1-12.26,78.2C988.4,582,869.89,668.4,817,702A476,476,0,0,0,958,829a516.69,516.69,0,0,0,156.48-144.66C1198,566,1207.84,444.66,1209,394L958,251,711,394a335.49,335.49,0,0,0,29,162,410.25,410.25,0,0,0,264-162,406,406,0,0,1-64.88,97.1C862.74,575.69,769.82,605.84,725,617a516,516,0,0,1-51-243L958,207Z" transform="translate(-673.67 -207)"/></svg>